<mxfile host="app.diagrams.net" modified="2022-12-19T17:42:04.107Z" agent="5.0 (X11)" version="20.7.4" etag="JgBsgS-vHxaicUAfsirF" type="github" pages="2">
  <diagram id="2iQ7KFdxJWEys-9EnqEy" name="blocktree">
    <mxGraphModel dx="2074" dy="1093" grid="1" gridSize="10" guides="1" tooltips="1" connect="1" arrows="1" fold="1" page="1" pageScale="1" pageWidth="850" pageHeight="1100" math="0" shadow="0">
      <root>
        <mxCell id="0" />
        <mxCell id="1" parent="0" />
        <mxCell id="ZJZPLlPZYwr_zcbTW-Ft-1" value="&lt;font data-font-src=&quot;https://fonts.googleapis.com/css?family=Gloria+Hallelujah&quot; style=&quot;font-size: 24px;&quot; face=&quot;Gloria Hallelujah&quot;&gt;A&lt;/font&gt;" style="rounded=1;whiteSpace=wrap;html=1;sketch=1;hachureGap=4;fontFamily=Architects Daughter;fontSource=https%3A%2F%2Ffonts.googleapis.com%2Fcss%3Ffamily%3DArchitects%2BDaughter;fontSize=20;fillColor=none;fillStyle=hachure;" vertex="1" parent="1">
          <mxGeometry x="41" y="170" width="60" height="60" as="geometry" />
        </mxCell>
        <mxCell id="ZJZPLlPZYwr_zcbTW-Ft-2" value="&lt;font style=&quot;font-size: 24px;&quot; data-font-src=&quot;https://fonts.googleapis.com/css?family=Gloria+Hallelujah&quot; face=&quot;Gloria Hallelujah&quot;&gt;B&lt;/font&gt;" style="rounded=1;whiteSpace=wrap;html=1;sketch=1;hachureGap=4;fontFamily=Architects Daughter;fontSource=https%3A%2F%2Ffonts.googleapis.com%2Fcss%3Ffamily%3DArchitects%2BDaughter;fontSize=20;fillColor=none;fillStyle=hachure;" vertex="1" parent="1">
          <mxGeometry x="141" y="170" width="60" height="60" as="geometry" />
        </mxCell>
        <mxCell id="ZJZPLlPZYwr_zcbTW-Ft-3" value="" style="endArrow=classicThin;html=1;sketch=1;hachureGap=2;fontFamily=Gloria Hallelujah;fontSource=https%3A%2F%2Ffonts.googleapis.com%2Fcss%3Ffamily%3DGloria%2BHallelujah;fontSize=16;startSize=14;endSize=14;sourcePerimeterSpacing=8;targetPerimeterSpacing=8;entryX=1;entryY=0.5;entryDx=0;entryDy=0;endFill=0;strokeColor=default;metaEdit=0;disableMultiStroke=0;startFill=1;exitX=0;exitY=0.5;exitDx=0;exitDy=0;rounded=0;" edge="1" parent="1" source="ZJZPLlPZYwr_zcbTW-Ft-2" target="ZJZPLlPZYwr_zcbTW-Ft-1">
          <mxGeometry width="50" height="50" relative="1" as="geometry">
            <mxPoint x="7" y="210" as="sourcePoint" />
            <mxPoint x="-29" y="210" as="targetPoint" />
          </mxGeometry>
        </mxCell>
        <mxCell id="ZJZPLlPZYwr_zcbTW-Ft-4" value="&lt;font style=&quot;font-size: 24px;&quot; data-font-src=&quot;https://fonts.googleapis.com/css?family=Gloria+Hallelujah&quot; face=&quot;Gloria Hallelujah&quot;&gt;C&lt;/font&gt;" style="rounded=1;whiteSpace=wrap;html=1;sketch=1;hachureGap=4;fontFamily=Architects Daughter;fontSource=https%3A%2F%2Ffonts.googleapis.com%2Fcss%3Ffamily%3DArchitects%2BDaughter;fontSize=20;fillColor=none;fillStyle=hachure;" vertex="1" parent="1">
          <mxGeometry x="240" y="170" width="60" height="60" as="geometry" />
        </mxCell>
        <mxCell id="ZJZPLlPZYwr_zcbTW-Ft-5" value="&lt;font style=&quot;font-size: 24px;&quot; data-font-src=&quot;https://fonts.googleapis.com/css?family=Gloria+Hallelujah&quot; face=&quot;Gloria Hallelujah&quot;&gt;E&lt;/font&gt;" style="rounded=1;whiteSpace=wrap;html=1;sketch=1;hachureGap=4;fontFamily=Architects Daughter;fontSource=https%3A%2F%2Ffonts.googleapis.com%2Fcss%3Ffamily%3DArchitects%2BDaughter;fontSize=20;fillColor=none;fillStyle=hachure;" vertex="1" parent="1">
          <mxGeometry x="639" y="170" width="60" height="60" as="geometry" />
        </mxCell>
        <mxCell id="ZJZPLlPZYwr_zcbTW-Ft-8" value="" style="endArrow=classicThin;html=1;sketch=1;hachureGap=2;fontFamily=Gloria Hallelujah;fontSource=https%3A%2F%2Ffonts.googleapis.com%2Fcss%3Ffamily%3DGloria%2BHallelujah;fontSize=16;startSize=14;endSize=14;sourcePerimeterSpacing=8;targetPerimeterSpacing=8;entryX=1;entryY=0.5;entryDx=0;entryDy=0;endFill=0;curved=1;strokeColor=default;metaEdit=0;disableMultiStroke=0;startFill=1;exitX=0;exitY=0.5;exitDx=0;exitDy=0;" edge="1" parent="1" source="ZJZPLlPZYwr_zcbTW-Ft-4" target="ZJZPLlPZYwr_zcbTW-Ft-2">
          <mxGeometry width="50" height="50" relative="1" as="geometry">
            <mxPoint x="151" y="210" as="sourcePoint" />
            <mxPoint x="111" y="210" as="targetPoint" />
          </mxGeometry>
        </mxCell>
        <mxCell id="ZJZPLlPZYwr_zcbTW-Ft-9" value="" style="endArrow=classicThin;html=1;sketch=1;hachureGap=2;fontFamily=Gloria Hallelujah;fontSource=https%3A%2F%2Ffonts.googleapis.com%2Fcss%3Ffamily%3DGloria%2BHallelujah;fontSize=16;startSize=14;endSize=14;sourcePerimeterSpacing=8;targetPerimeterSpacing=8;endFill=0;curved=1;strokeColor=default;metaEdit=0;disableMultiStroke=0;startFill=1;exitX=0;exitY=0.5;exitDx=0;exitDy=0;entryX=1;entryY=0.5;entryDx=0;entryDy=0;" edge="1" parent="1" source="ZJZPLlPZYwr_zcbTW-Ft-5" target="ZJZPLlPZYwr_zcbTW-Ft-12">
          <mxGeometry width="50" height="50" relative="1" as="geometry">
            <mxPoint x="161" y="220" as="sourcePoint" />
            <mxPoint x="210" y="290" as="targetPoint" />
          </mxGeometry>
        </mxCell>
        <mxCell id="ZJZPLlPZYwr_zcbTW-Ft-12" value="&lt;font style=&quot;font-size: 24px;&quot; data-font-src=&quot;https://fonts.googleapis.com/css?family=Gloria+Hallelujah&quot; face=&quot;Gloria Hallelujah&quot;&gt;D&lt;/font&gt;" style="rounded=1;whiteSpace=wrap;html=1;sketch=1;hachureGap=4;fontFamily=Architects Daughter;fontSource=https%3A%2F%2Ffonts.googleapis.com%2Fcss%3Ffamily%3DArchitects%2BDaughter;fontSize=20;fillColor=none;fillStyle=hachure;" vertex="1" parent="1">
          <mxGeometry x="340" y="170" width="60" height="60" as="geometry" />
        </mxCell>
        <mxCell id="ZJZPLlPZYwr_zcbTW-Ft-13" value="" style="endArrow=classicThin;html=1;sketch=1;hachureGap=2;fontFamily=Gloria Hallelujah;fontSource=https%3A%2F%2Ffonts.googleapis.com%2Fcss%3Ffamily%3DGloria%2BHallelujah;fontSize=16;startSize=14;endSize=14;sourcePerimeterSpacing=8;targetPerimeterSpacing=8;entryX=1;entryY=0.5;entryDx=0;entryDy=0;endFill=0;curved=1;strokeColor=default;metaEdit=0;disableMultiStroke=0;startFill=1;exitX=0;exitY=0.5;exitDx=0;exitDy=0;" edge="1" parent="1" source="ZJZPLlPZYwr_zcbTW-Ft-12" target="ZJZPLlPZYwr_zcbTW-Ft-4">
          <mxGeometry width="50" height="50" relative="1" as="geometry">
            <mxPoint x="350" y="240" as="sourcePoint" />
            <mxPoint x="211" y="210" as="targetPoint" />
          </mxGeometry>
        </mxCell>
        <mxCell id="ZJZPLlPZYwr_zcbTW-Ft-16" value="J" style="rounded=1;whiteSpace=wrap;html=1;sketch=1;hachureGap=4;fontFamily=Gloria Hallelujah;fontSource=https%3A%2F%2Ffonts.googleapis.com%2Fcss%3Ffamily%3DGloria%2BHallelujah;fontSize=24;fillColor=none;fillStyle=hachure;" vertex="1" parent="1">
          <mxGeometry x="340" y="260" width="60" height="60" as="geometry" />
        </mxCell>
        <mxCell id="ZJZPLlPZYwr_zcbTW-Ft-17" value="K" style="rounded=1;whiteSpace=wrap;html=1;sketch=1;hachureGap=4;fontFamily=Gloria Hallelujah;fontSource=https%3A%2F%2Ffonts.googleapis.com%2Fcss%3Ffamily%3DGloria%2BHallelujah;fontSize=24;fillColor=none;fillStyle=hachure;" vertex="1" parent="1">
          <mxGeometry x="439" y="260" width="60" height="60" as="geometry" />
        </mxCell>
        <mxCell id="ZJZPLlPZYwr_zcbTW-Ft-18" value="M" style="rounded=1;whiteSpace=wrap;html=1;sketch=1;hachureGap=4;fontFamily=Gloria Hallelujah;fontSource=https%3A%2F%2Ffonts.googleapis.com%2Fcss%3Ffamily%3DGloria%2BHallelujah;fontSize=24;fillColor=none;fillStyle=hachure;" vertex="1" parent="1">
          <mxGeometry x="639" y="260" width="60" height="60" as="geometry" />
        </mxCell>
        <mxCell id="ZJZPLlPZYwr_zcbTW-Ft-19" value="" style="endArrow=classicThin;html=1;sketch=1;hachureGap=2;fontFamily=Gloria Hallelujah;fontSource=https%3A%2F%2Ffonts.googleapis.com%2Fcss%3Ffamily%3DGloria%2BHallelujah;fontSize=16;startSize=14;endSize=14;sourcePerimeterSpacing=8;targetPerimeterSpacing=8;entryX=1;entryY=0.5;entryDx=0;entryDy=0;endFill=0;curved=1;strokeColor=default;metaEdit=0;disableMultiStroke=0;startFill=1;exitX=0;exitY=0.5;exitDx=0;exitDy=0;" edge="1" parent="1" source="ZJZPLlPZYwr_zcbTW-Ft-17" target="ZJZPLlPZYwr_zcbTW-Ft-16">
          <mxGeometry width="50" height="50" relative="1" as="geometry">
            <mxPoint x="350" y="300" as="sourcePoint" />
            <mxPoint x="310" y="300" as="targetPoint" />
          </mxGeometry>
        </mxCell>
        <mxCell id="ZJZPLlPZYwr_zcbTW-Ft-20" value="" style="endArrow=classicThin;html=1;sketch=1;hachureGap=2;fontFamily=Gloria Hallelujah;fontSource=https%3A%2F%2Ffonts.googleapis.com%2Fcss%3Ffamily%3DGloria%2BHallelujah;fontSize=16;startSize=14;endSize=14;sourcePerimeterSpacing=8;targetPerimeterSpacing=8;endFill=0;curved=1;strokeColor=default;metaEdit=0;disableMultiStroke=0;startFill=1;exitX=0;exitY=0.5;exitDx=0;exitDy=0;entryX=1;entryY=0.5;entryDx=0;entryDy=0;" edge="1" parent="1" source="ZJZPLlPZYwr_zcbTW-Ft-18" target="ZJZPLlPZYwr_zcbTW-Ft-21">
          <mxGeometry width="50" height="50" relative="1" as="geometry">
            <mxPoint x="360" y="310" as="sourcePoint" />
            <mxPoint x="409" y="380" as="targetPoint" />
          </mxGeometry>
        </mxCell>
        <mxCell id="ZJZPLlPZYwr_zcbTW-Ft-21" value="L" style="rounded=1;whiteSpace=wrap;html=1;sketch=1;hachureGap=4;fontFamily=Gloria Hallelujah;fontSource=https%3A%2F%2Ffonts.googleapis.com%2Fcss%3Ffamily%3DGloria%2BHallelujah;fontSize=24;fillColor=none;fillStyle=hachure;" vertex="1" parent="1">
          <mxGeometry x="539" y="260" width="60" height="60" as="geometry" />
        </mxCell>
        <mxCell id="ZJZPLlPZYwr_zcbTW-Ft-22" value="" style="endArrow=classicThin;html=1;sketch=1;hachureGap=2;fontFamily=Gloria Hallelujah;fontSource=https%3A%2F%2Ffonts.googleapis.com%2Fcss%3Ffamily%3DGloria%2BHallelujah;fontSize=16;startSize=14;endSize=14;sourcePerimeterSpacing=8;targetPerimeterSpacing=8;entryX=1;entryY=0.5;entryDx=0;entryDy=0;endFill=0;curved=1;strokeColor=default;metaEdit=0;disableMultiStroke=0;startFill=1;exitX=0;exitY=0.5;exitDx=0;exitDy=0;" edge="1" parent="1" source="ZJZPLlPZYwr_zcbTW-Ft-21" target="ZJZPLlPZYwr_zcbTW-Ft-17">
          <mxGeometry width="50" height="50" relative="1" as="geometry">
            <mxPoint x="549" y="330" as="sourcePoint" />
            <mxPoint x="410" y="300" as="targetPoint" />
          </mxGeometry>
        </mxCell>
        <mxCell id="ZJZPLlPZYwr_zcbTW-Ft-28" value="&lt;font style=&quot;font-size: 24px;&quot; data-font-src=&quot;https://fonts.googleapis.com/css?family=Gloria+Hallelujah&quot; face=&quot;Gloria Hallelujah&quot;&gt;F&lt;/font&gt;" style="rounded=1;whiteSpace=wrap;html=1;sketch=1;hachureGap=4;fontFamily=Architects Daughter;fontSource=https%3A%2F%2Ffonts.googleapis.com%2Fcss%3Ffamily%3DArchitects%2BDaughter;fontSize=20;fillColor=none;fillStyle=hachure;" vertex="1" parent="1">
          <mxGeometry x="240" y="80" width="60" height="60" as="geometry" />
        </mxCell>
        <mxCell id="ZJZPLlPZYwr_zcbTW-Ft-29" value="G" style="rounded=1;whiteSpace=wrap;html=1;sketch=1;hachureGap=4;fontFamily=Gloria Hallelujah;fontSource=https%3A%2F%2Ffonts.googleapis.com%2Fcss%3Ffamily%3DGloria%2BHallelujah;fontSize=24;fillColor=none;fillStyle=hachure;" vertex="1" parent="1">
          <mxGeometry x="339" y="80" width="60" height="60" as="geometry" />
        </mxCell>
        <mxCell id="ZJZPLlPZYwr_zcbTW-Ft-30" value="I" style="rounded=1;whiteSpace=wrap;html=1;sketch=1;hachureGap=4;fontFamily=Gloria Hallelujah;fontSource=https%3A%2F%2Ffonts.googleapis.com%2Fcss%3Ffamily%3DGloria%2BHallelujah;fontSize=24;fillColor=none;fillStyle=hachure;" vertex="1" parent="1">
          <mxGeometry x="639" y="80" width="60" height="60" as="geometry" />
        </mxCell>
        <mxCell id="ZJZPLlPZYwr_zcbTW-Ft-31" value="" style="endArrow=classicThin;html=1;sketch=1;hachureGap=2;fontFamily=Gloria Hallelujah;fontSource=https%3A%2F%2Ffonts.googleapis.com%2Fcss%3Ffamily%3DGloria%2BHallelujah;fontSize=16;startSize=14;endSize=14;sourcePerimeterSpacing=8;targetPerimeterSpacing=8;entryX=1;entryY=0.5;entryDx=0;entryDy=0;endFill=0;curved=1;strokeColor=default;metaEdit=0;disableMultiStroke=0;startFill=1;exitX=0;exitY=0.5;exitDx=0;exitDy=0;" edge="1" parent="1" source="ZJZPLlPZYwr_zcbTW-Ft-29" target="ZJZPLlPZYwr_zcbTW-Ft-28">
          <mxGeometry width="50" height="50" relative="1" as="geometry">
            <mxPoint x="250" y="120" as="sourcePoint" />
            <mxPoint x="210" y="120" as="targetPoint" />
          </mxGeometry>
        </mxCell>
        <mxCell id="ZJZPLlPZYwr_zcbTW-Ft-32" value="" style="endArrow=classicThin;html=1;sketch=1;hachureGap=2;fontFamily=Gloria Hallelujah;fontSource=https%3A%2F%2Ffonts.googleapis.com%2Fcss%3Ffamily%3DGloria%2BHallelujah;fontSize=16;startSize=14;endSize=14;sourcePerimeterSpacing=8;targetPerimeterSpacing=8;endFill=0;curved=1;strokeColor=default;metaEdit=0;disableMultiStroke=0;startFill=1;exitX=0;exitY=0.5;exitDx=0;exitDy=0;entryX=1;entryY=0.5;entryDx=0;entryDy=0;" edge="1" parent="1" source="ZJZPLlPZYwr_zcbTW-Ft-30" target="ZJZPLlPZYwr_zcbTW-Ft-33">
          <mxGeometry width="50" height="50" relative="1" as="geometry">
            <mxPoint x="260" y="130" as="sourcePoint" />
            <mxPoint x="309" y="200" as="targetPoint" />
          </mxGeometry>
        </mxCell>
        <mxCell id="Tg8lK41rM6lcIa1YuyZW-3" value="" style="edgeStyle=orthogonalEdgeStyle;rounded=0;orthogonalLoop=1;jettySize=auto;html=1;dashed=1;fontFamily=Gloria Hallelujah;fontSource=https%3A%2F%2Ffonts.googleapis.com%2Fcss%3Ffamily%3DGloria%2BHallelujah;fontSize=24;endArrow=classicThin;endFill=0;" edge="1" parent="1" source="ZJZPLlPZYwr_zcbTW-Ft-33" target="ZJZPLlPZYwr_zcbTW-Ft-29">
          <mxGeometry relative="1" as="geometry" />
        </mxCell>
        <mxCell id="ZJZPLlPZYwr_zcbTW-Ft-33" value="H" style="rounded=1;whiteSpace=wrap;html=1;sketch=1;hachureGap=4;fontFamily=Gloria Hallelujah;fontSource=https%3A%2F%2Ffonts.googleapis.com%2Fcss%3Ffamily%3DGloria%2BHallelujah;fontSize=24;fillColor=none;fillStyle=hachure;" vertex="1" parent="1">
          <mxGeometry x="439" y="80" width="60" height="60" as="geometry" />
        </mxCell>
        <mxCell id="ZJZPLlPZYwr_zcbTW-Ft-34" value="" style="endArrow=classicThin;html=1;sketch=1;hachureGap=2;fontFamily=Gloria Hallelujah;fontSource=https%3A%2F%2Ffonts.googleapis.com%2Fcss%3Ffamily%3DGloria%2BHallelujah;fontSize=16;startSize=14;endSize=14;sourcePerimeterSpacing=8;targetPerimeterSpacing=8;entryX=1;entryY=0.5;entryDx=0;entryDy=0;endFill=0;curved=1;strokeColor=default;metaEdit=0;disableMultiStroke=0;startFill=1;exitX=0;exitY=0.5;exitDx=0;exitDy=0;" edge="1" parent="1" source="ZJZPLlPZYwr_zcbTW-Ft-33" target="ZJZPLlPZYwr_zcbTW-Ft-29">
          <mxGeometry width="50" height="50" relative="1" as="geometry">
            <mxPoint x="449" y="150" as="sourcePoint" />
            <mxPoint x="310" y="120" as="targetPoint" />
          </mxGeometry>
        </mxCell>
        <mxCell id="ZJZPLlPZYwr_zcbTW-Ft-42" value="" style="endArrow=classicThin;html=1;sketch=1;hachureGap=2;fontFamily=Gloria Hallelujah;fontSource=https%3A%2F%2Ffonts.googleapis.com%2Fcss%3Ffamily%3DGloria%2BHallelujah;fontSize=16;startSize=14;endSize=14;sourcePerimeterSpacing=8;targetPerimeterSpacing=8;endFill=0;curved=1;strokeColor=default;metaEdit=0;disableMultiStroke=0;startFill=1;exitX=0;exitY=0.5;exitDx=0;exitDy=0;" edge="1" parent="1" source="ZJZPLlPZYwr_zcbTW-Ft-28">
          <mxGeometry width="50" height="50" relative="1" as="geometry">
            <mxPoint x="530" y="400" as="sourcePoint" />
            <mxPoint x="200" y="200" as="targetPoint" />
          </mxGeometry>
        </mxCell>
        <mxCell id="ZJZPLlPZYwr_zcbTW-Ft-45" value="" style="endArrow=classicThin;html=1;sketch=1;hachureGap=2;fontFamily=Gloria Hallelujah;fontSource=https%3A%2F%2Ffonts.googleapis.com%2Fcss%3Ffamily%3DGloria%2BHallelujah;fontSize=16;startSize=14;endSize=14;sourcePerimeterSpacing=8;targetPerimeterSpacing=8;endFill=0;curved=1;strokeColor=default;metaEdit=0;disableMultiStroke=0;startFill=1;exitX=0;exitY=0.5;exitDx=0;exitDy=0;entryX=1;entryY=0.5;entryDx=0;entryDy=0;" edge="1" parent="1" source="ZJZPLlPZYwr_zcbTW-Ft-16" target="ZJZPLlPZYwr_zcbTW-Ft-4">
          <mxGeometry width="50" height="50" relative="1" as="geometry">
            <mxPoint x="250" y="120" as="sourcePoint" />
            <mxPoint x="210" y="210" as="targetPoint" />
          </mxGeometry>
        </mxCell>
      </root>
    </mxGraphModel>
  </diagram>
  <diagram name="blocktree_finalised" id="inj6FYch4dwaY0Nm7V-Z">
    <mxGraphModel dx="2074" dy="1093" grid="1" gridSize="10" guides="1" tooltips="1" connect="1" arrows="1" fold="1" page="1" pageScale="1" pageWidth="850" pageHeight="1100" math="0" shadow="0">
      <root>
        <mxCell id="GQTOWTn1irD6brhqsDH8-0" />
        <mxCell id="GQTOWTn1irD6brhqsDH8-1" parent="GQTOWTn1irD6brhqsDH8-0" />
        <mxCell id="GQTOWTn1irD6brhqsDH8-2" value="&lt;font data-font-src=&quot;https://fonts.googleapis.com/css?family=Gloria+Hallelujah&quot; style=&quot;font-size: 24px;&quot; face=&quot;Gloria Hallelujah&quot;&gt;A&lt;/font&gt;" style="rounded=1;whiteSpace=wrap;html=1;sketch=1;hachureGap=4;fontFamily=Architects Daughter;fontSource=https%3A%2F%2Ffonts.googleapis.com%2Fcss%3Ffamily%3DArchitects%2BDaughter;fontSize=20;fillColor=#000000;fillStyle=hachure;" vertex="1" parent="GQTOWTn1irD6brhqsDH8-1">
          <mxGeometry x="41" y="170" width="60" height="60" as="geometry" />
        </mxCell>
        <mxCell id="GQTOWTn1irD6brhqsDH8-3" value="&lt;font style=&quot;font-size: 24px;&quot; data-font-src=&quot;https://fonts.googleapis.com/css?family=Gloria+Hallelujah&quot; face=&quot;Gloria Hallelujah&quot;&gt;B&lt;/font&gt;" style="rounded=1;whiteSpace=wrap;html=1;sketch=1;hachureGap=4;fontFamily=Architects Daughter;fontSource=https%3A%2F%2Ffonts.googleapis.com%2Fcss%3Ffamily%3DArchitects%2BDaughter;fontSize=20;fillColor=#000000;fillStyle=hachure;" vertex="1" parent="GQTOWTn1irD6brhqsDH8-1">
          <mxGeometry x="141" y="170" width="60" height="60" as="geometry" />
        </mxCell>
        <mxCell id="GQTOWTn1irD6brhqsDH8-4" value="" style="endArrow=classicThin;html=1;sketch=1;hachureGap=2;fontFamily=Gloria Hallelujah;fontSource=https%3A%2F%2Ffonts.googleapis.com%2Fcss%3Ffamily%3DGloria%2BHallelujah;fontSize=16;startSize=14;endSize=14;sourcePerimeterSpacing=8;targetPerimeterSpacing=8;entryX=1;entryY=0.5;entryDx=0;entryDy=0;endFill=0;curved=1;strokeColor=default;metaEdit=0;disableMultiStroke=0;startFill=1;exitX=0;exitY=0.5;exitDx=0;exitDy=0;" edge="1" parent="GQTOWTn1irD6brhqsDH8-1" source="GQTOWTn1irD6brhqsDH8-3" target="GQTOWTn1irD6brhqsDH8-2">
          <mxGeometry width="50" height="50" relative="1" as="geometry">
            <mxPoint x="7" y="210" as="sourcePoint" />
            <mxPoint x="-29" y="210" as="targetPoint" />
          </mxGeometry>
        </mxCell>
        <mxCell id="GQTOWTn1irD6brhqsDH8-5" value="&lt;font style=&quot;font-size: 24px;&quot; data-font-src=&quot;https://fonts.googleapis.com/css?family=Gloria+Hallelujah&quot; face=&quot;Gloria Hallelujah&quot;&gt;C&lt;/font&gt;" style="rounded=1;whiteSpace=wrap;html=1;sketch=1;hachureGap=4;fontFamily=Architects Daughter;fontSource=https%3A%2F%2Ffonts.googleapis.com%2Fcss%3Ffamily%3DArchitects%2BDaughter;fontSize=20;fillColor=#000000;fillStyle=hachure;" vertex="1" parent="GQTOWTn1irD6brhqsDH8-1">
          <mxGeometry x="240" y="170" width="60" height="60" as="geometry" />
        </mxCell>
        <mxCell id="GQTOWTn1irD6brhqsDH8-6" value="&lt;font style=&quot;font-size: 24px;&quot; data-font-src=&quot;https://fonts.googleapis.com/css?family=Gloria+Hallelujah&quot; face=&quot;Gloria Hallelujah&quot;&gt;E&lt;/font&gt;" style="rounded=1;whiteSpace=wrap;html=1;sketch=1;hachureGap=4;fontFamily=Architects Daughter;fontSource=https%3A%2F%2Ffonts.googleapis.com%2Fcss%3Ffamily%3DArchitects%2BDaughter;fontSize=20;fillColor=none;fillStyle=hachure;" vertex="1" parent="GQTOWTn1irD6brhqsDH8-1">
          <mxGeometry x="639" y="170" width="60" height="60" as="geometry" />
        </mxCell>
        <mxCell id="GQTOWTn1irD6brhqsDH8-7" value="" style="endArrow=classicThin;html=1;sketch=1;hachureGap=2;fontFamily=Gloria Hallelujah;fontSource=https%3A%2F%2Ffonts.googleapis.com%2Fcss%3Ffamily%3DGloria%2BHallelujah;fontSize=16;startSize=14;endSize=14;sourcePerimeterSpacing=8;targetPerimeterSpacing=8;entryX=1;entryY=0.5;entryDx=0;entryDy=0;endFill=0;curved=1;strokeColor=default;metaEdit=0;disableMultiStroke=0;startFill=1;exitX=0;exitY=0.5;exitDx=0;exitDy=0;" edge="1" parent="GQTOWTn1irD6brhqsDH8-1" source="GQTOWTn1irD6brhqsDH8-5" target="GQTOWTn1irD6brhqsDH8-3">
          <mxGeometry width="50" height="50" relative="1" as="geometry">
            <mxPoint x="151" y="210" as="sourcePoint" />
            <mxPoint x="111" y="210" as="targetPoint" />
          </mxGeometry>
        </mxCell>
        <mxCell id="GQTOWTn1irD6brhqsDH8-8" value="" style="endArrow=classicThin;html=1;sketch=1;hachureGap=2;fontFamily=Gloria Hallelujah;fontSource=https%3A%2F%2Ffonts.googleapis.com%2Fcss%3Ffamily%3DGloria%2BHallelujah;fontSize=16;startSize=14;endSize=14;sourcePerimeterSpacing=8;targetPerimeterSpacing=8;endFill=0;curved=1;strokeColor=default;metaEdit=0;disableMultiStroke=0;startFill=1;exitX=0;exitY=0.5;exitDx=0;exitDy=0;entryX=1;entryY=0.5;entryDx=0;entryDy=0;" edge="1" parent="GQTOWTn1irD6brhqsDH8-1" source="GQTOWTn1irD6brhqsDH8-6" target="GQTOWTn1irD6brhqsDH8-9">
          <mxGeometry width="50" height="50" relative="1" as="geometry">
            <mxPoint x="161" y="220" as="sourcePoint" />
            <mxPoint x="210" y="290" as="targetPoint" />
          </mxGeometry>
        </mxCell>
        <mxCell id="GQTOWTn1irD6brhqsDH8-9" value="&lt;font style=&quot;font-size: 24px;&quot; data-font-src=&quot;https://fonts.googleapis.com/css?family=Gloria+Hallelujah&quot; face=&quot;Gloria Hallelujah&quot;&gt;D&lt;/font&gt;" style="rounded=1;whiteSpace=wrap;html=1;sketch=1;hachureGap=4;fontFamily=Architects Daughter;fontSource=https%3A%2F%2Ffonts.googleapis.com%2Fcss%3Ffamily%3DArchitects%2BDaughter;fontSize=20;fillColor=#000000;fillStyle=hachure;" vertex="1" parent="GQTOWTn1irD6brhqsDH8-1">
          <mxGeometry x="340" y="170" width="60" height="60" as="geometry" />
        </mxCell>
        <mxCell id="GQTOWTn1irD6brhqsDH8-10" value="" style="endArrow=classicThin;html=1;sketch=1;hachureGap=2;fontFamily=Gloria Hallelujah;fontSource=https%3A%2F%2Ffonts.googleapis.com%2Fcss%3Ffamily%3DGloria%2BHallelujah;fontSize=16;startSize=14;endSize=14;sourcePerimeterSpacing=8;targetPerimeterSpacing=8;entryX=1;entryY=0.5;entryDx=0;entryDy=0;endFill=0;curved=1;strokeColor=default;metaEdit=0;disableMultiStroke=0;startFill=1;exitX=0;exitY=0.5;exitDx=0;exitDy=0;" edge="1" parent="GQTOWTn1irD6brhqsDH8-1" source="GQTOWTn1irD6brhqsDH8-9" target="GQTOWTn1irD6brhqsDH8-5">
          <mxGeometry width="50" height="50" relative="1" as="geometry">
            <mxPoint x="350" y="240" as="sourcePoint" />
            <mxPoint x="211" y="210" as="targetPoint" />
          </mxGeometry>
        </mxCell>
        <mxCell id="GQTOWTn1irD6brhqsDH8-11" value="J" style="rounded=1;whiteSpace=wrap;html=1;sketch=1;hachureGap=4;fontFamily=Gloria Hallelujah;fontSource=https%3A%2F%2Ffonts.googleapis.com%2Fcss%3Ffamily%3DGloria%2BHallelujah;fontSize=24;fillColor=none;fillStyle=hachure;dashed=1;" vertex="1" parent="GQTOWTn1irD6brhqsDH8-1">
          <mxGeometry x="340" y="260" width="60" height="60" as="geometry" />
        </mxCell>
        <mxCell id="GQTOWTn1irD6brhqsDH8-12" value="K" style="rounded=1;whiteSpace=wrap;html=1;sketch=1;hachureGap=4;fontFamily=Gloria Hallelujah;fontSource=https%3A%2F%2Ffonts.googleapis.com%2Fcss%3Ffamily%3DGloria%2BHallelujah;fontSize=24;fillColor=none;fillStyle=hachure;dashed=1;" vertex="1" parent="GQTOWTn1irD6brhqsDH8-1">
          <mxGeometry x="439" y="260" width="60" height="60" as="geometry" />
        </mxCell>
        <mxCell id="GQTOWTn1irD6brhqsDH8-13" value="M" style="rounded=1;whiteSpace=wrap;html=1;sketch=1;hachureGap=4;fontFamily=Gloria Hallelujah;fontSource=https%3A%2F%2Ffonts.googleapis.com%2Fcss%3Ffamily%3DGloria%2BHallelujah;fontSize=24;fillColor=none;fillStyle=hachure;dashed=1;" vertex="1" parent="GQTOWTn1irD6brhqsDH8-1">
          <mxGeometry x="639" y="260" width="60" height="60" as="geometry" />
        </mxCell>
        <mxCell id="GQTOWTn1irD6brhqsDH8-14" value="" style="endArrow=classicThin;html=1;sketch=1;hachureGap=2;fontFamily=Gloria Hallelujah;fontSource=https%3A%2F%2Ffonts.googleapis.com%2Fcss%3Ffamily%3DGloria%2BHallelujah;fontSize=16;startSize=14;endSize=14;sourcePerimeterSpacing=8;targetPerimeterSpacing=8;entryX=1;entryY=0.5;entryDx=0;entryDy=0;endFill=0;curved=1;strokeColor=default;metaEdit=0;disableMultiStroke=0;startFill=1;exitX=0;exitY=0.5;exitDx=0;exitDy=0;dashed=1;" edge="1" parent="GQTOWTn1irD6brhqsDH8-1" source="GQTOWTn1irD6brhqsDH8-12" target="GQTOWTn1irD6brhqsDH8-11">
          <mxGeometry width="50" height="50" relative="1" as="geometry">
            <mxPoint x="350" y="300" as="sourcePoint" />
            <mxPoint x="310" y="300" as="targetPoint" />
          </mxGeometry>
        </mxCell>
        <mxCell id="GQTOWTn1irD6brhqsDH8-15" value="" style="endArrow=classicThin;html=1;sketch=1;hachureGap=2;fontFamily=Gloria Hallelujah;fontSource=https%3A%2F%2Ffonts.googleapis.com%2Fcss%3Ffamily%3DGloria%2BHallelujah;fontSize=16;startSize=14;endSize=14;sourcePerimeterSpacing=8;targetPerimeterSpacing=8;endFill=0;curved=1;strokeColor=default;metaEdit=0;disableMultiStroke=0;startFill=1;exitX=0;exitY=0.5;exitDx=0;exitDy=0;entryX=1;entryY=0.5;entryDx=0;entryDy=0;dashed=1;" edge="1" parent="GQTOWTn1irD6brhqsDH8-1" source="GQTOWTn1irD6brhqsDH8-13" target="GQTOWTn1irD6brhqsDH8-16">
          <mxGeometry width="50" height="50" relative="1" as="geometry">
            <mxPoint x="360" y="310" as="sourcePoint" />
            <mxPoint x="409" y="380" as="targetPoint" />
          </mxGeometry>
        </mxCell>
        <mxCell id="GQTOWTn1irD6brhqsDH8-16" value="L" style="rounded=1;whiteSpace=wrap;html=1;sketch=1;hachureGap=4;fontFamily=Gloria Hallelujah;fontSource=https%3A%2F%2Ffonts.googleapis.com%2Fcss%3Ffamily%3DGloria%2BHallelujah;fontSize=24;fillColor=none;fillStyle=hachure;dashed=1;" vertex="1" parent="GQTOWTn1irD6brhqsDH8-1">
          <mxGeometry x="539" y="260" width="60" height="60" as="geometry" />
        </mxCell>
        <mxCell id="GQTOWTn1irD6brhqsDH8-17" value="" style="endArrow=classicThin;html=1;sketch=1;hachureGap=2;fontFamily=Gloria Hallelujah;fontSource=https%3A%2F%2Ffonts.googleapis.com%2Fcss%3Ffamily%3DGloria%2BHallelujah;fontSize=16;startSize=14;endSize=14;sourcePerimeterSpacing=8;targetPerimeterSpacing=8;entryX=1;entryY=0.5;entryDx=0;entryDy=0;endFill=0;curved=1;strokeColor=default;metaEdit=0;disableMultiStroke=0;startFill=1;exitX=0;exitY=0.5;exitDx=0;exitDy=0;dashed=1;" edge="1" parent="GQTOWTn1irD6brhqsDH8-1" source="GQTOWTn1irD6brhqsDH8-16" target="GQTOWTn1irD6brhqsDH8-12">
          <mxGeometry width="50" height="50" relative="1" as="geometry">
            <mxPoint x="549" y="330" as="sourcePoint" />
            <mxPoint x="410" y="300" as="targetPoint" />
          </mxGeometry>
        </mxCell>
        <mxCell id="GQTOWTn1irD6brhqsDH8-18" value="&lt;font style=&quot;font-size: 24px;&quot; data-font-src=&quot;https://fonts.googleapis.com/css?family=Gloria+Hallelujah&quot; face=&quot;Gloria Hallelujah&quot;&gt;F&lt;/font&gt;" style="rounded=1;whiteSpace=wrap;html=1;sketch=1;hachureGap=4;fontFamily=Architects Daughter;fontSource=https%3A%2F%2Ffonts.googleapis.com%2Fcss%3Ffamily%3DArchitects%2BDaughter;fontSize=20;fillColor=none;fillStyle=hachure;dashed=1;" vertex="1" parent="GQTOWTn1irD6brhqsDH8-1">
          <mxGeometry x="240" y="80" width="60" height="60" as="geometry" />
        </mxCell>
        <mxCell id="GQTOWTn1irD6brhqsDH8-19" value="G" style="rounded=1;whiteSpace=wrap;html=1;sketch=1;hachureGap=4;fontFamily=Gloria Hallelujah;fontSource=https%3A%2F%2Ffonts.googleapis.com%2Fcss%3Ffamily%3DGloria%2BHallelujah;fontSize=24;fillColor=none;fillStyle=hachure;dashed=1;" vertex="1" parent="GQTOWTn1irD6brhqsDH8-1">
          <mxGeometry x="339" y="80" width="60" height="60" as="geometry" />
        </mxCell>
        <mxCell id="GQTOWTn1irD6brhqsDH8-20" value="I" style="rounded=1;whiteSpace=wrap;html=1;sketch=1;hachureGap=4;fontFamily=Gloria Hallelujah;fontSource=https%3A%2F%2Ffonts.googleapis.com%2Fcss%3Ffamily%3DGloria%2BHallelujah;fontSize=24;fillColor=none;fillStyle=hachure;dashed=1;" vertex="1" parent="GQTOWTn1irD6brhqsDH8-1">
          <mxGeometry x="639" y="80" width="60" height="60" as="geometry" />
        </mxCell>
        <mxCell id="GQTOWTn1irD6brhqsDH8-21" value="" style="endArrow=classicThin;html=1;sketch=1;hachureGap=2;fontFamily=Gloria Hallelujah;fontSource=https%3A%2F%2Ffonts.googleapis.com%2Fcss%3Ffamily%3DGloria%2BHallelujah;fontSize=16;startSize=14;endSize=14;sourcePerimeterSpacing=8;targetPerimeterSpacing=8;entryX=1;entryY=0.5;entryDx=0;entryDy=0;endFill=0;curved=1;strokeColor=default;metaEdit=0;disableMultiStroke=0;startFill=1;exitX=0;exitY=0.5;exitDx=0;exitDy=0;dashed=1;" edge="1" parent="GQTOWTn1irD6brhqsDH8-1" source="GQTOWTn1irD6brhqsDH8-19" target="GQTOWTn1irD6brhqsDH8-18">
          <mxGeometry width="50" height="50" relative="1" as="geometry">
            <mxPoint x="250" y="120" as="sourcePoint" />
            <mxPoint x="210" y="120" as="targetPoint" />
          </mxGeometry>
        </mxCell>
        <mxCell id="GQTOWTn1irD6brhqsDH8-22" value="" style="endArrow=classicThin;html=1;sketch=1;hachureGap=2;fontFamily=Gloria Hallelujah;fontSource=https%3A%2F%2Ffonts.googleapis.com%2Fcss%3Ffamily%3DGloria%2BHallelujah;fontSize=16;startSize=14;endSize=14;sourcePerimeterSpacing=8;targetPerimeterSpacing=8;endFill=0;curved=1;strokeColor=default;metaEdit=0;disableMultiStroke=0;startFill=1;exitX=0;exitY=0.5;exitDx=0;exitDy=0;entryX=1;entryY=0.5;entryDx=0;entryDy=0;dashed=1;" edge="1" parent="GQTOWTn1irD6brhqsDH8-1" source="GQTOWTn1irD6brhqsDH8-20" target="GQTOWTn1irD6brhqsDH8-23">
          <mxGeometry width="50" height="50" relative="1" as="geometry">
            <mxPoint x="260" y="130" as="sourcePoint" />
            <mxPoint x="309" y="200" as="targetPoint" />
          </mxGeometry>
        </mxCell>
        <mxCell id="GQTOWTn1irD6brhqsDH8-23" value="H" style="rounded=1;whiteSpace=wrap;html=1;sketch=1;hachureGap=4;fontFamily=Gloria Hallelujah;fontSource=https%3A%2F%2Ffonts.googleapis.com%2Fcss%3Ffamily%3DGloria%2BHallelujah;fontSize=24;fillColor=none;fillStyle=hachure;dashed=1;" vertex="1" parent="GQTOWTn1irD6brhqsDH8-1">
          <mxGeometry x="439" y="80" width="60" height="60" as="geometry" />
        </mxCell>
        <mxCell id="GQTOWTn1irD6brhqsDH8-24" value="" style="endArrow=classicThin;html=1;sketch=1;hachureGap=2;fontFamily=Gloria Hallelujah;fontSource=https%3A%2F%2Ffonts.googleapis.com%2Fcss%3Ffamily%3DGloria%2BHallelujah;fontSize=16;startSize=14;endSize=14;sourcePerimeterSpacing=8;targetPerimeterSpacing=8;entryX=1;entryY=0.5;entryDx=0;entryDy=0;endFill=0;curved=1;strokeColor=default;metaEdit=0;disableMultiStroke=0;startFill=1;exitX=0;exitY=0.5;exitDx=0;exitDy=0;dashed=1;" edge="1" parent="GQTOWTn1irD6brhqsDH8-1" source="GQTOWTn1irD6brhqsDH8-23" target="GQTOWTn1irD6brhqsDH8-19">
          <mxGeometry width="50" height="50" relative="1" as="geometry">
            <mxPoint x="449" y="150" as="sourcePoint" />
            <mxPoint x="310" y="120" as="targetPoint" />
          </mxGeometry>
        </mxCell>
        <mxCell id="GQTOWTn1irD6brhqsDH8-25" value="" style="endArrow=classicThin;html=1;sketch=1;hachureGap=2;fontFamily=Gloria Hallelujah;fontSource=https%3A%2F%2Ffonts.googleapis.com%2Fcss%3Ffamily%3DGloria%2BHallelujah;fontSize=16;startSize=14;endSize=14;sourcePerimeterSpacing=8;targetPerimeterSpacing=8;endFill=0;curved=1;strokeColor=default;metaEdit=0;disableMultiStroke=0;startFill=1;exitX=0;exitY=0.5;exitDx=0;exitDy=0;dashed=1;" edge="1" parent="GQTOWTn1irD6brhqsDH8-1" source="GQTOWTn1irD6brhqsDH8-18">
          <mxGeometry width="50" height="50" relative="1" as="geometry">
            <mxPoint x="530" y="400" as="sourcePoint" />
            <mxPoint x="200" y="200" as="targetPoint" />
          </mxGeometry>
        </mxCell>
        <mxCell id="GQTOWTn1irD6brhqsDH8-26" value="" style="endArrow=classicThin;html=1;sketch=1;hachureGap=2;fontFamily=Gloria Hallelujah;fontSource=https%3A%2F%2Ffonts.googleapis.com%2Fcss%3Ffamily%3DGloria%2BHallelujah;fontSize=16;startSize=14;endSize=14;sourcePerimeterSpacing=8;targetPerimeterSpacing=8;endFill=0;curved=1;strokeColor=default;metaEdit=0;disableMultiStroke=0;startFill=1;exitX=0;exitY=0.5;exitDx=0;exitDy=0;entryX=1;entryY=0.5;entryDx=0;entryDy=0;dashed=1;" edge="1" parent="GQTOWTn1irD6brhqsDH8-1" source="GQTOWTn1irD6brhqsDH8-11" target="GQTOWTn1irD6brhqsDH8-5">
          <mxGeometry width="50" height="50" relative="1" as="geometry">
            <mxPoint x="250" y="120" as="sourcePoint" />
            <mxPoint x="210" y="210" as="targetPoint" />
          </mxGeometry>
        </mxCell>
      </root>
    </mxGraphModel>
  </diagram>
</mxfile>
